# xmcd
#
# Track frame offsets:
#	150
#	13085
#	27615
#	42690
#	54600
#	69887
#	88350
#	103075
#	114642
#	127975
#	140855
#	159510
#
# Disc length: 2310 seconds
#
# Revision: 1
# Processed by: cddbd v1.5.2PL0 Copyright (c) Steve Scherf et al.
# Submitted via: audiograbber 1.83.01
#
DISCID=b209040c
DTITLE=Jack Diamond - The Diamond Is Jack
DYEAR=1991
DGENRE=Country
TTITLE0=Money in my Pocket
TTITLE1=The Bottom Line
TTITLE2=Whatcha Thinkin Bout Now
TTITLE3=Giving Up On Me
TTITLE4=Rescue Me
TTITLE5=Holding On For Dear Life
TTITLE6=Stoned To The Bone
TTITLE7=Heartwewck
TTITLE8=Long Cool Woman
TTITLE9=Love Me Back Together
TTITLE10=Someone To Lean On
TTITLE11=The Diamond Is Jack
EXTD=
EXTT0=
EXTT1=
EXTT2=
EXTT3=
EXTT4=
EXTT5=
EXTT6=
EXTT7=
EXTT8=
EXTT9=
EXTT10=
EXTT11=
PLAYORDER=
